<svg width="16" height="16" viewBox="0 0 16 16" fill="none" xmlns="http://www.w3.org/2000/svg">
<g clip-path="url(#clip0_2_10)">
<path fill-rule="evenodd" clip-rule="evenodd" d="M8 0C8.29455 0 8.53333 0.238782 8.53333 0.533333V2.66667C8.53333 2.96122 8.29455 3.2 8 3.2C7.70545 3.2 7.46667 2.96122 7.46667 2.66667V0.533333C7.46667 0.238782 7.70545 0 8 0ZM2.34315 2.34315C2.55142 2.13487 2.88911 2.13487 3.0974 2.34315L4.60589 3.85164C4.81417 4.05991 4.81417 4.39761 4.60589 4.60589C4.39761 4.81417 4.05991 4.81417 3.85164 4.60589L2.34315 3.0974C2.13487 2.88911 2.13487 2.55142 2.34315 2.34315ZM0.533333 7.46667C0.238782 7.46667 0 7.70545 0 8C0 8.29455 0.238782 8.53333 0.533333 8.53333H2.66667C2.96122 8.53333 3.2 8.29455 3.2 8C3.2 7.70545 2.96122 7.46667 2.66667 7.46667H0.533333ZM2.34315 13.6569C2.13487 13.4485 2.13487 13.1109 2.34315 12.9026L3.85164 11.3941C4.05991 11.1858 4.39761 11.1858 4.60589 11.3941C4.81417 11.6023 4.81417 11.9401 4.60589 12.1484L3.0974 13.6569C2.88911 13.8652 2.55142 13.8652 2.34315 13.6569ZM13.3333 7.46667C13.0388 7.46667 12.8 7.70545 12.8 8C12.8 8.29455 13.0388 8.53333 13.3333 8.53333H15.4667C15.7612 8.53333 16 8.29455 16 8C16 7.70545 15.7612 7.46667 15.4667 7.46667H13.3333ZM11.3941 4.60589C11.1858 4.39761 11.1858 4.05991 11.3941 3.85164L12.9026 2.34315C13.1109 2.13487 13.4485 2.13487 13.6569 2.34315C13.8652 2.55142 13.8652 2.88911 13.6569 3.0974L12.1484 4.60589C11.9401 4.81417 11.6023 4.81417 11.3941 4.60589ZM8.53333 13.3333C8.53333 13.0388 8.29455 12.8 8 12.8C7.70545 12.8 7.46667 13.0388 7.46667 13.3333V15.4667C7.46667 15.7612 7.70545 16 8 16C8.29455 16 8.53333 15.7612 8.53333 15.4667V13.3333ZM11.3941 11.3941C11.6023 11.1858 11.9401 11.1858 12.1484 11.3941L13.6569 12.9026C13.8652 13.1109 13.8652 13.4485 13.6569 13.6569C13.4485 13.8652 13.1109 13.8652 12.9026 13.6569L11.3941 12.1484C11.1858 11.9401 11.1858 11.6023 11.3941 11.3941ZM5.86667 8C5.86667 6.82179 6.82179 5.86667 8 5.86667C9.17821 5.86667 10.1333 6.82179 10.1333 8C10.1333 9.17821 9.17821 10.1333 8 10.1333C6.82179 10.1333 5.86667 9.17821 5.86667 8ZM8 4.8C6.23269 4.8 4.8 6.23269 4.8 8C4.8 9.76731 6.23269 11.2 8 11.2C9.76731 11.2 11.2 9.76731 11.2 8C11.2 6.23269 9.76731 4.8 8 4.8Z" fill="#5DA1E0"/>
</g>
<defs>
<clipPath id="clip0_2_10">
<rect width="16" height="16" fill="white"/>
</clipPath>
</defs>
</svg>
